# xmcd
# 
# Track frame offsets:
#     150
#     32735
#     67525
#     102410
#     133625
#     168432
#     196755
#     229215
#     262192
#     290887
# 
# Disc length: 4411
# 
# Revision: 1
# Processed by: cddbd v1.5.2PL0 Copyright (c) Steve Scherf et al.
# Submitted via: BonkEnc v1.0.8
# 
DISCID=8f11390a
DTITLE=布川俊樹 - Departure
DYEAR=1998
DGENRE=Fusion
TTITLE0=Ring World
TTITLE1=Double Spy
TTITLE2=Musaihoku
TTITLE3=Flowers Of Pool
TTITLE4=Fragment
TTITLE5=Mad Hatter Blues
TTITLE6=The Bottom Of The World
TTITLE7=Hemlock
TTITLE8=I Love You
TTITLE9=Departure
EXTD=YEAR: 1999
EXTT0=
EXTT1=
EXTT2=
EXTT3=
EXTT4=
EXTT5=
EXTT6=
EXTT7=
EXTT8=
EXTT9=
PLAYORDER=
